<?xml version="1.0" standalone="no"?>
<!DOCTYPE svg PUBLIC "-//W3C//DTD SVG 20010904//EN"
 "http://www.w3.org/TR/2001/REC-SVG-20010904/DTD/svg10.dtd">
<svg version="1.0" xmlns="http://www.w3.org/2000/svg"
 width="325.000000pt" height="325.000000pt" viewBox="0 0 325.000000 325.000000"
 preserveAspectRatio="xMidYMid meet">
<metadata>
Created by potrace 1.11, written by Peter Selinger 2001-2013
</metadata>
<g transform="translate(0.000000,325.000000) scale(0.100000,-0.100000)"
fill="#000000" stroke="none">
<path d="M0 1625 l0 -1625 105 0 105 0 0 126 c0 88 -5 140 -16 175 -16 49 -21
51 -55 22 -15 -12 -17 2 -23 165 -4 98 -7 760 -7 1470 l0 1292 -54 0 -55 0 0
-1625z m147 -1502 c-3 -10 -5 -4 -5 12 0 17 2 24 5 18 2 -7 2 -21 0 -30z"/>
<path d="M3164 3175 c11 -125 21 -728 21 -1313 0 -321 4 -552 9 -552 5 0 6
-40 1 -98 -5 -53 -9 -119 -10 -147 -6 -189 -19 -355 -26 -355 -5 0 -9 -15 -9
-34 0 -57 -12 -126 -21 -120 -5 3 -9 -6 -9 -20 0 -14 -4 -26 -9 -26 -4 0 -11
-35 -15 -78 -3 -42 -11 -79 -16 -80 -6 -2 -17 -10 -25 -18 -12 -13 -17 -12
-35 3 -11 10 -20 30 -20 45 0 16 -4 28 -9 28 -5 0 -12 23 -16 50 -6 45 -14 55
-37 51 -5 0 -8 10 -8 24 0 20 -5 25 -25 25 -20 0 -25 -5 -25 -25 0 -14 -4 -25
-10 -25 -14 0 -13 47 1 52 7 2 8 20 4 51 -6 41 -10 47 -31 47 -19 0 -24 -5
-25 -27 -1 -23 -3 -21 -11 12 -5 22 -7 79 -5 127 4 51 2 88 -4 90 -5 2 -19
103 -31 226 -12 122 -24 222 -27 222 -4 0 -5 -24 -4 -52 2 -46 1 -49 -7 -23
-7 22 -8 8 -5 -47 3 -43 1 -78 -4 -78 -5 0 -9 -35 -8 -77 0 -43 -2 -123 -5
-178 -3 -55 -6 -133 -7 -172 -1 -41 -5 -73 -11 -73 -6 0 -10 28 -10 65 0 85
-21 88 -39 6 -14 -64 -22 -411 -11 -518 3 -35 3 -63 -1 -63 -4 0 -5 -9 -2 -20
5 -19 24 -25 66 -20 11 1 21 -6 23 -17 4 -15 12 -18 35 -15 19 3 29 0 29 -8 0
-10 3 -10 14 -1 11 9 30 8 81 -4 44 -10 117 -15 221 -15 169 0 180 5 129 56
-14 14 -25 29 -25 33 0 4 -9 18 -20 31 -11 13 -20 26 -20 30 0 17 32 32 60 28
l30 -5 0 1539 0 1538 -46 0 -47 0 7 -75z m-119 -2875 c3 -5 -3 -10 -14 -10
-12 0 -21 5 -21 10 0 6 6 10 14 10 8 0 18 -4 21 -10z"/>
<path d="M1353 3123 c-4 -10 -8 -11 -13 -4 -4 8 -24 5 -64 -9 -32 -11 -62 -17
-67 -14 -5 2 -16 -4 -25 -15 -9 -10 -22 -17 -29 -15 -6 3 -18 -2 -25 -11 -20
-24 -30 -18 -20 13 9 24 8 25 -4 10 -24 -32 -28 -19 -5 18 l22 36 -36 -23
c-20 -13 -37 -30 -37 -37 0 -7 -5 -10 -11 -7 -6 4 -10 1 -8 -6 1 -8 0 -25 -1
-39 l-2 -25 -8 25 c-4 14 -9 18 -9 10 -1 -8 -8 -24 -16 -34 -14 -19 -15 -18
-24 5 l-10 24 -1 -25 c-1 -23 -2 -23 -10 -5 -7 17 -9 16 -9 -10 -2 -39 -9 -48
-51 -70 -122 -62 -228 -162 -264 -250 -9 -20 -34 -59 -56 -85 -22 -26 -40 -52
-40 -58 0 -5 -6 -15 -14 -21 -7 -6 -16 -26 -20 -43 -3 -18 -16 -42 -27 -54
-16 -17 -23 -44 -30 -105 -5 -45 -12 -86 -15 -91 -13 -21 -32 -243 -27 -324 5
-92 30 -195 65 -273 16 -36 20 -65 19 -150 -1 -83 4 -118 20 -161 11 -30 33
-102 49 -160 15 -58 33 -116 39 -130 l10 -25 0 24 c1 20 3 21 16 11 8 -7 15
-19 15 -26 0 -8 9 -14 20 -14 11 0 20 -7 20 -15 0 -21 -30 -19 -46 2 -19 27
-27 9 -14 -31 14 -42 43 -66 82 -66 19 0 28 -5 30 -17 0 -10 2 -22 3 -28 2 -5
3 -18 4 -27 0 -9 7 -23 15 -30 7 -8 19 -32 26 -53 7 -22 16 -48 21 -58 7 -13
5 -17 -8 -18 -14 0 -13 -2 5 -9 12 -5 22 -16 22 -24 0 -8 9 -18 20 -21 23 -7
26 -25 8 -43 -9 -9 -9 -12 0 -12 7 0 12 5 12 10 0 6 5 10 11 10 6 0 8 -7 5
-16 -3 -9 -2 -12 5 -9 15 10 39 -27 33 -49 -4 -12 -2 -16 5 -12 6 4 13 -3 16
-16 8 -32 44 -252 42 -254 -39 -20 -85 -52 -95 -66 -8 -10 -41 -31 -75 -47
-54 -25 -107 -63 -107 -76 0 -3 47 -5 104 -5 102 0 104 0 110 25 7 29 58 115
68 115 4 0 10 -31 14 -70 l7 -70 426 0 c234 0 420 4 413 8 -9 6 -10 19 -4 48
7 33 12 38 30 36 12 -2 22 2 22 7 0 6 -5 11 -11 11 -5 0 6 17 25 38 20 20 39
45 42 55 3 9 12 17 21 17 8 0 17 9 20 20 3 11 9 20 14 20 11 0 149 138 149
149 0 4 8 16 18 27 10 11 27 32 36 47 10 15 25 27 34 27 8 0 12 3 9 7 -8 7 11
33 25 33 5 0 6 -5 2 -11 -11 -19 -34 -249 -34 -354 -1 -61 4 -115 13 -140 l14
-40 231 -2 c230 -3 231 -3 215 17 -10 11 -23 20 -30 20 -23 0 -93 25 -93 32 0
5 4 8 9 8 5 0 7 57 5 127 -2 71 -6 200 -8 288 -4 106 -10 173 -20 200 -8 22
-15 38 -16 35 0 -3 -6 -95 -13 -205 -15 -248 -14 -419 3 -440 11 -13 8 -15
-18 -15 -17 0 -37 -3 -46 -6 -19 -7 -79 52 -70 68 5 7 10 3 15 -10 12 -33 54
-49 73 -29 14 13 14 33 6 144 -5 70 -10 171 -12 223 -2 52 -6 97 -10 101 -5 3
-9 60 -10 127 -1 67 -6 122 -10 122 -4 0 -8 -47 -8 -104 0 -57 -7 -168 -15
-246 -8 -78 -12 -146 -9 -151 8 -14 -7 -99 -18 -99 -6 0 -8 14 -5 35 3 19 -1
94 -9 167 -9 73 -15 148 -14 166 0 20 -4 32 -12 32 -10 0 -10 2 1 9 11 7 10
11 -5 19 -10 6 -16 14 -12 17 4 4 1 14 -7 22 -23 23 -18 31 17 27 27 -4 30 -2
15 8 -22 17 -30 65 -12 72 10 4 14 23 13 68 -1 95 1 105 17 122 13 12 13 19 4
34 -14 23 -5 54 13 47 9 -4 14 3 15 16 1 14 -3 19 -12 15 -19 -7 -31 14 -14
25 12 8 12 10 0 18 -12 7 -13 39 -7 179 7 160 6 173 -13 211 -25 47 -25 59 -5
86 12 16 18 18 34 7 19 -11 20 -10 17 28 -2 27 1 40 9 40 7 0 14 -3 17 -7 2
-5 1 -1 -2 7 -3 8 -6 40 -7 71 -1 31 -9 83 -17 115 -8 33 -15 91 -16 129 0 39
-5 84 -10 100 -5 17 -12 68 -16 115 -6 82 -13 112 -41 193 -8 20 -14 49 -14
63 0 13 -13 54 -30 89 -16 35 -30 67 -30 71 0 4 -18 29 -40 55 -22 26 -40 52
-40 57 0 18 -67 61 -89 57 -15 -3 -20 1 -18 14 3 29 -96 105 -179 139 -61 24
-76 27 -81 16 -3 -8 -10 -14 -15 -14 -6 0 -5 7 2 15 20 24 0 36 -63 38 -30 1
-53 5 -51 9 2 4 0 9 -5 12 -5 4 -12 2 -16 -3 -6 -10 -45 -11 -45 -1 0 4 -19
22 -41 40 -35 28 -45 31 -61 21 -15 -9 -22 -8 -40 9 -22 21 -78 28 -78 10 0
-5 -5 -10 -11 -10 -6 0 -8 8 -4 19 7 24 -33 38 -42 14z m395 -208 c-3 -3 -9 2
-12 12 -6 14 -5 15 5 6 7 -7 10 -15 7 -18z m-504 -386 c-4 -8 -1 -8 12 -1 18
9 133 7 161 -3 7 -2 15 0 18 5 6 10 39 7 75 -8 14 -5 30 -7 35 -3 34 21 156
18 225 -6 36 -12 78 -22 93 -23 15 0 43 -7 63 -15 24 -10 32 -10 27 -2 -4 6 6
2 21 -11 16 -12 34 -22 40 -22 26 -1 110 -71 133 -111 32 -57 37 -74 113 -404
11 -49 29 -124 40 -165 76 -294 73 -276 65 -410 -5 -69 -9 -169 -9 -222 -1
-54 -5 -98 -9 -98 -5 0 -6 -4 -3 -8 3 -5 -4 -14 -14 -22 -10 -8 -17 -17 -14
-22 3 -4 -2 -15 -10 -24 -9 -8 -16 -11 -16 -6 0 6 -6 12 -14 15 -9 4 -20 -6
-30 -26 -8 -18 -16 -26 -16 -19 0 6 -4 12 -10 12 -5 0 -6 -7 -3 -17 4 -11 3
-14 -5 -9 -7 4 -12 2 -12 -6 0 -10 -2 -10 -9 1 -7 11 -11 10 -20 -7 -6 -11
-11 -27 -10 -34 0 -7 4 -4 9 7 8 18 9 18 9 2 1 -10 -5 -32 -12 -50 -8 -18 -13
-42 -12 -55 1 -12 -3 -21 -9 -19 -6 2 -10 11 -8 21 2 9 -2 16 -8 16 -10 0 -14
-15 -11 -34 1 -5 -5 -3 -14 4 -21 18 -33 3 -13 -16 15 -15 14 -18 -4 -39 -12
-14 -27 -21 -37 -18 -14 4 -14 3 1 -7 10 -6 15 -17 11 -27 -4 -9 -2 -14 3 -10
6 3 11 -4 11 -16 2 -16 0 -18 -6 -8 -7 11 -14 9 -35 -12 -30 -30 -33 -42 -10
-33 9 4 23 1 30 -5 11 -9 11 -14 -2 -27 -13 -13 -17 -13 -25 -1 -7 11 -9 11
-9 1 0 -7 -5 -10 -11 -6 -8 4 -9 -1 -4 -17 7 -23 7 -24 -9 -4 -14 18 -15 19
-16 2 0 -10 -4 -16 -8 -13 -4 2 -14 1 -22 -4 -15 -9 -16 -13 -19 -46 0 -10 -7
-14 -15 -11 -10 4 -14 0 -11 -11 1 -9 -3 -22 -10 -29 -10 -9 -14 -5 -19 19 -3
16 -3 35 0 40 4 6 -3 5 -15 -1 -11 -7 -21 -18 -21 -26 0 -13 -34 -55 -44 -55
-2 0 -2 10 1 23 4 18 3 19 -6 7 -9 -13 -11 -13 -11 3 0 9 -6 18 -12 18 -27 3
-53 -3 -59 -13 -4 -6 -12 -8 -18 -4 -5 4 -19 -2 -29 -12 -33 -33 -61 -34 -103
-4 -21 15 -39 33 -39 40 0 7 -7 15 -15 18 -8 4 -15 14 -15 23 0 14 -2 14 -10
1 -6 -10 -10 -11 -10 -2 0 25 -20 11 -20 -15 -1 -28 -1 -28 -18 7 -11 23 -25
36 -42 38 -13 2 -30 11 -37 20 -7 10 -13 13 -13 7 -1 -5 -5 -1 -9 10 -5 11 -4
29 2 40 9 18 8 18 -6 7 -13 -11 -15 -10 -10 8 3 12 11 19 19 16 7 -3 14 -1 16
3 5 13 48 24 48 12 0 -6 6 -11 14 -11 7 0 19 -7 26 -15 9 -11 16 -12 26 -4 7
5 50 11 96 11 46 0 90 4 99 9 9 4 33 9 53 11 26 1 36 7 36 19 0 10 7 19 15 21
12 2 10 10 -11 42 l-27 39 -72 -6 c-47 -3 -77 -1 -84 6 -8 8 -11 8 -11 0 0 -7
-24 -11 -66 -12 -36 0 -75 -3 -86 -7 -11 -3 -24 -1 -27 5 -10 16 -51 -16 -51
-40 0 -13 5 -18 13 -14 6 4 4 0 -5 -8 -10 -8 -18 -22 -18 -31 0 -9 -4 -16 -10
-16 -5 0 -7 7 -4 15 5 11 2 13 -12 8 -13 -5 -16 -3 -12 9 4 9 0 15 -8 15 -8 0
-14 -6 -14 -13 0 -16 -30 -27 -31 -11 -1 7 -1 20 0 29 2 12 -3 16 -13 12 -12
-5 -15 -2 -10 10 4 9 1 16 -6 16 -20 0 -66 53 -62 73 4 21 61 24 92 5 16 -10
25 -10 47 4 19 11 53 17 103 17 41 1 83 2 92 2 23 0 31 27 11 38 -21 11 11 19
127 30 45 5 87 14 93 20 8 8 6 11 -8 12 -16 1 -15 3 5 8 14 4 38 4 54 -1 18
-5 32 -4 36 2 4 6 32 7 79 1 46 -6 83 -6 99 0 14 5 42 9 63 7 42 -2 53 -15 58
-68 1 -13 2 -13 11 0 8 11 9 6 8 -19 -2 -23 2 -35 12 -38 9 -3 11 -1 5 4 -5 4
-10 27 -11 51 0 24 2 38 6 31 6 -8 10 -8 16 2 5 8 16 14 24 14 20 0 26 101 10
172 -20 94 -140 197 -276 238 -54 16 -56 15 -60 -20 -2 -17 2 -25 13 -25 19 0
74 -38 135 -92 17 -16 34 -28 37 -28 3 0 14 -14 24 -32 14 -24 15 -34 6 -42
-9 -8 -10 -8 -4 2 5 10 -3 13 -37 10 -31 -2 -42 -7 -40 -17 3 -12 0 -12 -12
-1 -9 7 -16 8 -16 2 0 -7 -8 -6 -24 1 -13 7 -22 16 -19 21 4 5 1 6 -7 1 -7 -4
-16 -2 -21 6 -6 10 -9 11 -9 1 0 -12 0 -12 -61 19 -16 8 -19 8 -14 -1 6 -9 2
-9 -14 -1 -17 10 -19 16 -11 31 14 27 14 27 -26 34 -28 6 -45 2 -80 -19 -24
-14 -44 -21 -44 -16 0 16 -56 51 -89 55 -17 2 -37 9 -46 16 -15 12 -78 10
-123 -5 -22 -7 -23 -5 -20 31 3 34 6 39 31 42 15 2 27 8 27 14 0 6 13 8 35 4
33 -6 35 -5 35 19 0 14 -4 25 -10 25 -14 0 -10 111 5 141 8 15 11 41 8 67 -7
54 13 85 63 99 40 12 104 7 104 -7 0 -16 32 -40 53 -40 12 0 31 -12 42 -26 35
-47 70 -64 157 -75 64 -8 93 -7 127 3 65 20 62 34 -9 42 -40 5 -58 11 -54 18
4 7 2 8 -5 4 -6 -4 -21 -4 -32 -1 -17 6 -19 9 -8 16 8 5 24 9 36 9 30 0 56 28
50 57 -2 12 -2 23 0 23 13 0 63 -32 63 -40 0 -6 16 -10 35 -10 19 0 35 4 35
10 0 5 7 7 15 4 11 -4 15 0 15 16 0 26 -58 110 -76 110 -24 0 -24 17 1 46 14
16 20 31 15 32 -18 6 1 22 26 22 27 0 34 20 7 21 -11 0 -13 3 -6 6 10 3 9 8
-2 19 -11 12 -19 12 -35 4 -11 -6 -57 -13 -103 -15 -131 -7 -164 -13 -224 -44
-31 -16 -62 -27 -70 -24 -7 3 -13 -1 -13 -9 0 -7 -8 -15 -17 -16 -52 -5 -106
-26 -132 -50 -15 -14 -36 -12 -136 17 -38 10 -104 24 -145 30 -41 6 -91 15
-110 21 -19 5 -59 10 -87 10 -29 0 -53 4 -53 9 0 6 -12 6 -30 1 -18 -5 -30 -5
-30 1 0 20 -61 0 -91 -30 -17 -18 -34 -30 -36 -27 -9 8 30 81 56 106 21 20 27
34 26 68 0 44 -13 59 -70 77 -16 5 -17 8 -5 15 12 8 12 10 1 10 -9 0 -12 8 -9
25 3 13 2 22 -3 20 -4 -3 -13 21 -20 52 -20 97 13 203 66 211 11 2 32 6 48 9
16 3 27 1 27 -6 0 -6 7 -8 15 -5 8 4 12 11 8 18 -3 6 -3 8 1 4 9 -8 74 18 93
38 8 8 20 14 28 14 7 0 15 9 18 20 3 11 12 20 21 20 9 0 16 4 16 9 0 13 56 33
77 27 10 -3 25 -1 33 4 20 13 23 12 14 -1z m746 -39 c0 -5 -2 -10 -4 -10 -3 0
-8 5 -11 10 -3 6 -1 10 4 10 6 0 11 -4 11 -10z m53 -764 c18 -7 41 -24 52 -36
l20 -23 -30 17 c-16 9 -55 25 -85 35 -50 18 -52 20 -22 20 18 1 47 -5 65 -13z
m-73 -48 c0 -4 -7 -8 -15 -8 -8 0 -15 4 -15 8 0 5 7 9 15 9 8 0 15 -4 15 -9z
m-602 -252 c31 -16 32 -17 16 -41 -9 -14 -21 -25 -27 -25 -15 0 -102 -69 -182
-144 -38 -36 -73 -66 -77 -66 -4 0 -13 -6 -20 -12 -40 -38 -91 -47 -153 -29
-17 4 -39 5 -50 1 -31 -11 -53 6 -61 48 -4 20 -15 45 -25 54 -10 10 -21 34
-25 53 -3 19 -10 38 -15 41 -5 3 -9 14 -9 24 0 10 -6 25 -14 33 -8 7 -11 19
-7 26 9 14 71 24 71 12 0 -17 117 -33 202 -27 81 5 122 16 212 55 46 21 120
20 164 -3z m-134 -337 c-8 -14 -24 -10 -24 6 0 9 6 12 15 9 8 -4 12 -10 9 -15z
m1094 -430 c-3 -8 -7 -3 -11 10 -4 17 -3 21 5 13 5 -5 8 -16 6 -23z m4 -24
c11 12 19 -51 12 -100 -4 -28 -9 -89 -11 -137 -3 -49 -8 -88 -12 -88 -8 0 -41
165 -44 222 -1 21 -6 38 -12 38 -7 0 -7 3 0 8 6 4 11 14 13 22 1 8 8 28 14 43
11 28 11 29 23 8 6 -12 14 -19 17 -16z m245 -112 c-3 -10 -5 -4 -5 12 0 17 2
24 5 18 2 -7 2 -21 0 -30z m-662 -344 c-10 -15 -25 -10 -19 6 4 8 10 12 15 9
5 -3 7 -10 4 -15z"/>
<path d="M2010 1121 c0 -5 5 -13 10 -16 6 -3 10 -2 10 4 0 5 -4 13 -10 16 -5
3 -10 2 -10 -4z"/>
<path d="M1156 3095 c-3 -8 -1 -15 4 -15 6 0 10 7 10 15 0 8 -2 15 -4 15 -2 0
-6 -7 -10 -15z"/>
<path d="M1488 3103 c6 -2 18 -2 25 0 6 3 1 5 -13 5 -14 0 -19 -2 -12 -5z"/>
<path d="M988 3027 c-3 -19 -2 -25 4 -19 6 6 8 18 6 28 -3 14 -5 12 -10 -9z"/>
<path d="M2450 1646 c0 -3 7 -12 16 -20 23 -23 40 -19 19 4 -16 18 -35 26 -35
16z"/>
<path d="M2538 1048 c-2 -90 1 -172 6 -183 9 -19 10 -18 22 10 7 17 8 31 3 33
-5 2 -9 71 -9 153 0 85 -4 149 -9 149 -6 0 -11 -71 -13 -162z"/>
<path d="M2653 1060 c0 -30 2 -43 4 -27 2 15 2 39 0 55 -2 15 -4 2 -4 -28z"/>
<path d="M2435 909 c0 -52 11 -66 20 -24 15 74 16 80 5 65 -7 -11 -12 -12 -18
-3 -4 6 -7 -11 -7 -38z"/>
<path d="M2637 883 c-2 -21 0 -42 4 -47 5 -6 9 -25 9 -43 0 -47 17 -41 24 10
6 48 -4 109 -21 114 -6 2 -13 -12 -16 -34z"/>
<path d="M2822 840 c0 -14 4 -38 8 -55 7 -27 8 -27 8 -5 0 14 -4 39 -8 55 -7
27 -8 27 -8 5z"/>
<path d="M342 283 c-17 -183 -16 -272 4 -280 33 -12 36 11 29 211 -4 108 -11
196 -14 196 -4 0 -13 -57 -19 -127z"/>
<path d="M280 300 c0 -5 -7 -10 -15 -10 -13 0 -15 -23 -15 -145 0 -131 2 -145
18 -145 15 0 17 15 19 155 1 85 0 155 -3 155 -2 0 -4 -4 -4 -10z"/>
<path d="M439 258 c-1 -47 -2 -50 -10 -23 -9 32 -3 -120 8 -188 12 -81 23 -29
23 113 0 93 -4 150 -10 150 -5 0 -11 -24 -11 -52z"/>
<path d="M516 273 c-9 -58 -7 -113 4 -113 7 0 8 -19 5 -52 -5 -39 -4 -49 4
-38 13 18 15 240 2 240 -4 0 -11 -17 -15 -37z"/>
<path d="M595 268 c-10 -25 -1 -173 10 -171 13 4 19 163 6 176 -7 7 -12 5 -16
-5z"/>
</g>
</svg>
