<?xml version="1.0" standalone="no"?>
<!DOCTYPE svg PUBLIC "-//W3C//DTD SVG 20010904//EN"
 "http://www.w3.org/TR/2001/REC-SVG-20010904/DTD/svg10.dtd">
<svg version="1.0" xmlns="http://www.w3.org/2000/svg"
 width="16.000000pt" height="16.000000pt" viewBox="0 0 16.000000 16.000000"
 preserveAspectRatio="xMidYMid meet">
<metadata>
Created by potrace 1.11, written by Peter Selinger 2001-2013
</metadata>
<g transform="translate(0.000000,16.000000) scale(0.003478,-0.003478)"
fill="#000000" stroke="none">
<path d="M0 3093 c0 -1481 1 -1508 20 -1533 25 -32 25 -36 0 -43 -11 -3 -20
-11 -20 -17 0 -7 6 -10 14 -7 18 7 40 -18 33 -37 -3 -8 -1 -16 6 -19 8 -2 7
-9 -5 -20 -20 -21 -28 -21 -28 -3 0 8 -4 18 -10 21 -6 4 -10 -46 -9 -143 l1
-150 32 -8 31 -8 -33 -3 -32 -4 0 -103 0 -103 100 -12 c64 -9 135 -11 200 -6
67 5 100 4 100 -3 0 -6 -12 -24 -26 -41 l-26 -31 -174 0 -174 0 0 -215 c0
-118 1 -215 3 -215 1 0 24 7 51 15 49 15 176 21 163 8 -4 -3 -17 -8 -30 -9
-12 -1 -58 -14 -102 -27 l-80 -25 -3 -176 -2 -176 970 0 c617 0 970 4 970 10
0 5 14 25 30 43 17 19 30 42 30 51 0 9 4 16 8 16 4 0 22 19 40 42 18 23 32 38
32 34 0 -4 12 1 28 12 27 19 76 38 79 31 1 -2 12 6 25 17 13 12 39 25 58 29
30 7 32 9 15 16 -15 6 -9 8 23 8 30 1 41 4 36 13 -5 8 -2 9 11 4 10 -4 21 -3
24 1 3 4 33 21 66 37 79 39 145 88 142 105 -4 25 -26 23 -38 -2 -7 -15 -17
-23 -25 -20 -8 3 -14 0 -14 -6 0 -6 -7 -11 -15 -11 -8 0 -15 -6 -15 -12 -1 -7
-7 1 -14 17 l-13 30 -11 -35 c-6 -19 -11 -28 -11 -19 -1 12 -10 16 -34 15 -18
-1 -37 -5 -44 -9 -6 -4 -14 -1 -16 5 -3 8 -6 6 -6 -5 -1 -15 -5 -16 -21 -7
-11 6 -20 19 -20 30 0 10 -7 26 -16 35 -9 9 -16 27 -16 40 0 14 -4 22 -8 20
-5 -3 -11 1 -14 7 -3 7 -3 1 0 -14 8 -37 -14 -128 -31 -128 -8 0 -11 8 -8 20
3 11 0 20 -6 20 -6 0 -11 -6 -11 -13 0 -17 -34 -49 -42 -41 -7 6 23 67 35 72
11 5 9 42 -3 42 -5 0 -12 -11 -16 -25 -9 -37 -24 -30 -24 10 0 39 -7 43 -25
18 -12 -17 -14 -17 -34 1 -12 11 -21 25 -21 32 0 8 -6 11 -15 8 -11 -5 -15 1
-15 24 0 17 5 34 10 37 16 10 12 25 -6 25 -14 0 -14 3 -4 15 10 12 10 15 -3
15 -8 0 -17 -6 -20 -12 -3 -9 -7 -7 -12 5 -4 11 -2 29 6 44 12 22 11 26 -4 35
-10 5 -15 13 -12 19 4 5 -3 9 -13 9 -18 0 -19 3 -9 42 12 53 11 52 35 39 11
-6 23 -7 27 -3 4 4 28 7 53 8 26 0 88 6 139 14 88 13 93 15 104 44 7 17 17 34
21 37 15 10 -3 38 -35 54 -18 9 -68 21 -112 27 -44 6 -91 16 -105 24 l-25 13
23 7 c24 7 27 16 12 44 -17 32 13 38 225 46 191 7 203 11 90 28 -28 4 -34 3
-20 -4 16 -7 12 -9 -20 -9 -25 0 -35 2 -27 8 20 12 -10 22 -79 26 -31 2 -85
11 -120 20 -92 24 -109 42 -66 70 22 14 29 13 85 -4 63 -20 93 -18 164 12 l26
11 -19 38 c-11 21 -15 38 -9 38 17 0 11 20 -7 27 -10 4 -32 17 -49 30 -17 13
-36 23 -42 23 -7 0 -12 6 -12 14 0 8 -9 18 -20 21 -34 11 -43 41 -25 80 17 34
13 61 -7 49 -6 -4 -8 -3 -5 3 4 6 7 49 8 96 1 48 5 84 10 81 5 -3 9 -1 9 5 0
5 -5 11 -11 13 -7 2 -7 12 0 31 8 20 8 33 -1 47 -10 15 -9 37 5 105 9 48 21
93 28 101 6 8 26 14 43 14 56 -1 67 -15 183 -257 22 -46 43 -80 46 -77 3 4 25
-10 49 -29 62 -51 114 -75 188 -86 224 -36 425 22 485 140 10 19 23 41 30 49
8 8 19 44 25 80 6 36 17 71 22 78 7 8 9 47 5 108 -8 139 -41 189 -135 209
l-33 7 3 -61 c1 -33 -1 -63 -5 -67 -4 -4 -7 1 -7 10 0 10 -10 26 -22 37 -14
10 -18 18 -10 19 7 0 10 5 7 10 -3 6 1 10 9 10 20 0 21 16 1 24 -8 3 -15 11
-15 19 0 13 -97 37 -153 37 -33 0 -44 17 -15 23 13 2 -4 6 -37 7 -54 3 -119 8
-152 12 -7 1 -11 6 -10 12 1 7 -14 10 -38 9 -22 -1 -87 -5 -144 -7 -58 -3
-107 -9 -110 -13 -14 -19 -64 -44 -77 -39 -10 4 -12 2 -8 -5 10 -16 -84 -2
-113 17 -12 8 -33 14 -45 14 -13 0 -36 7 -52 15 -16 9 -31 13 -33 11 -3 -2
-23 4 -46 15 -23 10 -53 19 -66 19 -16 0 -21 4 -17 15 3 9 -3 19 -16 26 -15 8
-18 8 -14 0 4 -7 -1 -11 -12 -11 -10 0 -32 16 -48 36 -16 20 -37 44 -46 53
-10 8 -18 25 -18 38 0 12 -8 28 -19 35 -14 10 -18 23 -16 51 2 20 0 35 -4 33
-4 -3 -6 12 -3 32 2 20 4 44 4 52 1 8 4 17 7 20 15 12 50 88 54 115 2 17 8 38
12 49 5 11 4 26 -3 37 -7 12 -8 19 -1 21 14 5 15 71 1 76 -15 5 -16 48 -2 57
6 3 10 19 10 35 0 23 7 32 43 49 24 12 53 21 66 21 12 0 33 7 46 16 13 8 32
14 42 12 10 -1 25 2 32 7 8 5 36 8 61 6 26 -1 58 4 75 13 35 18 45 20 45 7 0
-5 -8 -12 -17 -14 -10 -3 -5 -5 12 -6 17 0 43 6 58 14 16 8 49 14 75 14 54 -1
192 -29 192 -40 0 -3 19 -9 43 -13 23 -4 53 -14 66 -23 19 -12 25 -13 32 -2 7
11 9 11 9 -2 0 -15 19 -29 40 -29 4 0 13 14 20 30 16 38 23 34 11 -6 -11 -38
6 -64 43 -64 28 0 32 10 16 41 -7 13 -7 19 0 19 5 0 10 6 10 14 0 28 17 25 49
-8 l32 -33 -29 5 c-23 3 -30 -1 -34 -16 -5 -16 -1 -19 18 -17 13 1 24 -2 24
-6 0 -5 6 -9 14 -9 7 0 19 -7 26 -15 7 -8 25 -15 41 -15 19 0 29 5 29 15 0 18
21 20 37 4 6 -6 17 -9 25 -6 9 3 7 7 -6 13 -20 8 -56 40 -56 49 0 3 11 3 24
-1 30 -7 55 4 35 16 -9 6 -9 12 4 25 20 19 22 45 4 45 -19 0 -40 37 -24 43 9
4 9 6 0 6 -6 1 -19 -6 -27 -15 -15 -14 -16 -14 -16 0 0 20 -16 21 -24 1 -3 -8
-13 -15 -21 -15 -9 0 -14 4 -11 9 3 4 -1 17 -9 27 -13 18 -14 18 -39 -5 -14
-14 -26 -33 -26 -43 0 -10 -7 -18 -16 -18 -9 0 -14 6 -11 13 6 15 -29 41 -43
32 -6 -3 -7 1 -4 10 5 11 10 13 19 5 7 -6 20 -8 28 -4 14 5 14 8 2 20 -7 8
-21 14 -29 14 -9 0 -16 5 -16 10 0 6 9 10 20 10 11 0 20 5 20 10 0 6 7 10 15
10 8 0 14 3 14 8 -4 24 3 42 17 42 8 0 12 5 9 10 -3 6 -18 7 -32 4 -15 -4 -24
-3 -20 2 7 13 -17 64 -46 97 -17 19 -30 25 -43 21 -12 -5 -9 1 9 15 15 12 27
27 27 32 0 12 -37 12 -45 -1 -3 -5 -11 -10 -16 -10 -6 0 -8 4 -5 9 9 14 -83
22 -106 10 -18 -10 -20 -9 -15 5 4 10 1 16 -8 16 -27 0 -16 16 20 30 19 8 35
18 35 22 0 5 10 13 23 18 21 8 21 9 1 9 -11 1 -25 -4 -32 -11 -8 -8 -15 -8
-25 0 -8 7 -17 9 -21 5 -4 -4 -4 1 0 11 5 14 3 17 -7 14 -8 -3 -13 -12 -11
-22 2 -9 -4 -16 -12 -16 -19 0 -30 17 -16 25 17 10 11 21 -17 35 -16 7 -23 15
-15 17 6 3 9 9 6 14 -3 6 -1 16 5 23 9 11 4 15 -24 20 -19 4 -35 13 -35 20 0
12 -20 26 -36 26 -10 0 -2 -25 14 -43 16 -19 16 -19 -8 -12 -14 4 -34 14 -45
21 -18 13 -18 14 -1 14 10 0 16 6 13 13 -4 11 -12 13 -64 16 -13 1 -23 7 -23
15 0 8 -8 17 -17 20 -10 4 -14 4 -10 0 4 -4 2 -13 -4 -20 -8 -10 -7 -18 5 -29
17 -18 21 -35 8 -35 -5 0 -14 16 -22 35 -7 19 -17 32 -22 29 -4 -3 8 -35 27
-71 40 -76 40 -73 20 -73 -8 0 -15 5 -15 10 0 6 -16 36 -36 67 -34 53 -37 56
-50 39 -13 -18 -15 -18 -39 -2 -24 16 -27 16 -42 0 -16 -15 -16 -18 4 -33 11
-10 24 -33 28 -52 7 -34 7 -34 -11 -13 -11 11 -28 21 -39 21 -80 4 -162 33
-150 53 6 9 -43 43 -62 43 -7 0 -10 4 -8 8 3 3 -2 12 -10 19 -8 7 -12 16 -9
21 3 5 0 9 -6 9 -7 0 -10 6 -8 12 3 8 19 12 43 10 22 -2 41 1 45 8 5 8 13 9
21 4 25 -16 45 -13 57 6 8 13 9 20 1 20 -5 0 -8 4 -5 8 6 11 -5 26 -29 40 -19
11 -19 11 5 12 24 0 23 1 -7 16 -36 18 -41 29 -17 38 13 5 13 8 2 21 -31 34
-38 45 -44 69 -6 25 -7 26 -21 9 -13 -17 -14 -16 -7 6 5 19 3 23 -10 18 -24
-9 -20 1 12 28 15 13 36 25 47 25 36 1 52 17 38 39 -12 19 -7 61 8 61 11 0 69
-57 69 -67 0 -4 12 -34 27 -65 19 -39 34 -58 46 -58 25 0 18 32 -9 44 -15 7
-21 18 -20 35 1 34 15 33 44 -1 28 -33 46 -36 37 -7 -5 15 -4 19 4 15 6 -4 22
5 37 21 24 26 25 27 19 5 -5 -16 -3 -23 7 -21 18 3 48 -11 48 -23 0 -5 -5 -6
-10 -3 -18 11 -23 -25 -6 -44 21 -23 20 -34 -1 -23 -20 10 -43 5 -43 -9 0 -4
7 -6 15 -3 8 4 15 1 15 -6 0 -15 52 -70 60 -65 16 10 125 -16 144 -33 12 -11
28 -22 36 -26 39 -18 55 -33 55 -51 0 -11 11 -25 25 -32 14 -7 19 -13 10 -13
-12 -1 -11 -3 3 -11 9 -5 17 -16 17 -23 0 -14 36 -28 74 -30 20 -1 36 -26 17
-26 -6 0 -11 -5 -11 -11 0 -6 9 -8 20 -4 12 4 20 2 20 -4 0 -8 6 -7 19 1 15 9
23 9 35 -1 14 -12 19 -10 37 10 19 22 21 23 31 6 7 -14 13 -16 24 -7 11 10 22
4 53 -29 22 -23 44 -41 48 -41 17 0 55 -48 50 -62 -4 -8 -8 -5 -12 10 -4 12
-12 22 -17 22 -17 0 1 -54 25 -74 16 -14 17 -18 5 -13 -10 4 -18 2 -18 -3 0
-6 10 -10 23 -10 18 0 19 -2 7 -10 -19 -13 -8 -13 25 0 18 7 24 7 20 -1 -4 -5
0 -18 7 -27 29 -33 31 -46 3 -19 -15 15 -30 25 -33 23 -8 -9 43 -64 65 -70 12
-3 26 -19 32 -37 14 -40 14 -42 -1 -33 -8 5 -9 2 -5 -10 4 -10 7 -21 7 -24 0
-4 5 0 11 8 9 12 10 11 6 -7 -3 -13 -1 -23 5 -23 5 0 7 -4 3 -10 -9 -15 18
-50 40 -50 14 0 16 -3 7 -9 -10 -6 -10 -10 3 -21 12 -10 18 -10 32 1 9 8 14 9
10 3 -5 -8 2 -11 19 -10 19 1 24 5 20 19 -5 21 10 23 21 2 8 -13 11 -13 28 1
20 15 20 15 -2 11 -26 -6 -36 14 -22 45 9 21 9 21 4 -4 -5 -27 5 -33 45 -30 3
0 6 -8 6 -18 0 -10 -4 -16 -8 -14 -4 3 -8 1 -8 -5 0 -6 -11 -13 -25 -17 -33
-8 -36 -54 -4 -54 14 0 19 5 16 14 -7 19 9 23 63 16 33 -5 40 -8 27 -14 -9 -5
-29 -6 -43 -3 -20 3 -28 0 -31 -14 -4 -13 -11 -18 -23 -14 -10 3 -21 1 -25 -5
-4 -6 5 -10 22 -11 19 -1 22 -3 10 -6 -13 -3 -17 -11 -14 -25 5 -17 2 -18 -25
-13 -25 6 -29 4 -26 -12 2 -12 15 -20 38 -24 19 -4 27 -7 18 -8 -10 0 -18 -6
-18 -12 0 -5 5 -7 10 -4 17 10 23 -24 12 -58 l-11 -32 6 38 c4 25 1 37 -7 37
-7 0 -10 -6 -7 -14 3 -8 -1 -17 -9 -20 -11 -4 -12 -10 -5 -24 6 -10 9 -66 7
-123 -3 -93 -1 -106 17 -126 11 -13 17 -26 13 -30 -4 -5 -14 1 -22 11 -13 19
-14 18 -14 -13 0 -31 43 -89 62 -84 4 2 8 -2 8 -7 0 -6 -7 -10 -15 -10 -13 0
-14 -4 -4 -22 15 -27 4 -160 -17 -204 -13 -27 -13 -41 0 -115 8 -47 18 -119
22 -161 l7 -76 -25 5 c-25 5 -25 4 -31 -89 -6 -97 0 -155 47 -423 28 -164 47
-240 69 -281 9 -16 21 -41 27 -56 8 -17 22 -29 41 -33 16 -4 29 -8 29 -9 0
-15 41 -289 44 -294 2 -4 7 -34 11 -67 3 -33 13 -103 21 -155 13 -87 32 -253
33 -290 0 -8 4 -33 10 -56 11 -42 33 -160 52 -274 16 -95 31 -111 24 -25 -11
139 -10 151 15 102 21 -42 35 -108 45 -204 l7 -63 374 0 374 0 0 542 c0 538 0
543 -25 667 -14 70 -36 187 -50 261 -42 230 -54 289 -70 337 -9 26 -14 52 -11
58 2 6 -2 38 -10 71 -8 32 -21 95 -29 139 -7 44 -18 103 -24 130 -9 47 -25
132 -84 465 -14 74 -30 153 -36 175 -32 118 -52 226 -52 275 0 30 -7 84 -15
120 -14 61 -38 175 -70 335 -9 45 -21 76 -34 86 -15 13 -21 35 -26 85 -3 38
-19 112 -34 164 -15 52 -33 129 -41 170 -7 41 -15 77 -19 80 -3 3 -15 32 -26
65 l-19 60 -3 -38 c-3 -34 2 -73 24 -207 3 -19 10 -40 15 -47 7 -7 6 -14 -1
-18 -8 -5 -8 -11 0 -19 5 -7 12 -26 14 -42 3 -16 8 -49 12 -74 4 -25 8 -61 8
-80 1 -19 6 -39 13 -45 6 -5 14 -37 18 -69 3 -32 8 -63 11 -67 3 -5 1 -17 -5
-26 -8 -16 -10 -15 -15 7 -16 65 -59 276 -77 375 -12 61 -25 119 -29 130 -5
11 -12 43 -16 70 -4 28 -8 55 -10 60 -9 36 -36 165 -39 190 -7 42 -23 93 -24
73 -1 -9 8 -60 19 -115 11 -54 32 -154 45 -223 31 -153 67 -331 88 -425 9 -38
19 -99 22 -135 4 -36 16 -98 27 -138 11 -41 20 -97 21 -125 1 -29 6 -55 11
-59 5 -3 10 -33 10 -66 1 -33 7 -66 13 -73 18 -23 61 -208 93 -399 6 -36 15
-85 21 -110 25 -111 111 -563 144 -760 8 -47 22 -116 30 -155 8 -38 24 -124
35 -190 11 -66 31 -183 45 -260 33 -183 47 -266 48 -287 1 -10 4 -18 7 -18 3
0 5 -17 5 -37 0 -21 3 -45 7 -55 4 -9 15 -60 23 -115 9 -54 19 -119 24 -145 5
-32 4 -48 -3 -51 -7 -3 -12 17 -14 52 -2 31 -7 60 -13 66 -5 5 -9 32 -10 60 0
27 -5 59 -10 70 -6 15 -8 8 -5 -25 l5 -45 -14 50 c-15 56 -19 109 -5 65 7 -22
8 -23 9 -4 1 12 -8 28 -18 35 -12 9 -21 30 -24 57 -3 24 -10 49 -16 55 -6 6
-11 21 -11 34 0 14 -6 23 -16 23 -13 0 -15 6 -10 27 5 21 4 24 -4 13 -7 -11
-10 -6 -10 22 0 28 -5 38 -20 43 -12 4 -20 14 -19 23 4 39 -1 66 -11 56 -6 -6
-6 -34 0 -74 5 -36 11 -87 14 -115 4 -27 12 -79 19 -115 15 -81 16 -152 1
-157 -7 -2 -18 32 -29 94 -10 54 -21 104 -26 113 -7 13 -33 144 -59 303 -6 32
-19 95 -30 140 -20 84 -34 154 -50 242 -5 28 -18 100 -30 160 -11 61 -29 155
-39 211 -9 55 -21 105 -24 111 -4 6 -14 53 -22 105 -7 51 -25 147 -39 213 -27
132 -73 400 -87 510 -38 307 -69 465 -92 465 -6 0 -8 2 -5 5 3 3 -4 36 -14 73
-27 90 -41 156 -78 352 -39 215 -50 267 -61 315 -6 22 -12 56 -15 75 -3 19
-17 94 -31 165 -14 72 -29 148 -32 170 l-6 40 -1802 3 -1803 2 0 -1507z m2330
1372 c0 -5 -5 -3 -10 5 -5 8 -10 20 -10 25 0 6 5 3 10 -5 5 -8 10 -19 10 -25z
m30 -60 c0 -5 -5 -3 -10 5 -5 8 -10 20 -10 25 0 6 5 3 10 -5 5 -8 10 -19 10
-25z m47 -7 c-3 -8 -6 -5 -6 6 -1 11 2 17 5 13 3 -3 4 -12 1 -19z m2 -82 c-9
-8 -10 -7 -5 7 3 10 7 24 7 30 1 7 3 4 6 -7 3 -10 -1 -23 -8 -30z m-874 -52
c10 -20 29 -44 42 -54 12 -9 20 -20 16 -24 -3 -3 1 -14 9 -23 19 -22 30 -53
20 -53 -5 0 -18 14 -31 30 -29 41 -91 160 -83 160 4 0 16 -16 27 -36z m378 13
c6 4 8 0 4 -10 -3 -10 -2 -17 3 -17 5 0 12 -10 16 -22 4 -13 12 -26 18 -30 8
-6 8 -8 -1 -8 -15 0 -74 85 -65 94 3 4 8 2 10 -3 2 -6 9 -8 15 -4z m-59 -44
c27 -29 26 -43 -5 -43 -10 0 -19 -5 -19 -10 0 -14 -31 -9 -47 7 -17 16 -16 29
4 53 23 27 37 25 67 -7z m856 -88 c-10 -12 -10 -18 1 -32 13 -15 11 -16 -11
-10 -14 4 -31 7 -39 7 -7 0 1 13 20 29 34 30 52 34 29 6z m-1137 -9 c3 -8 -1
-20 -9 -26 -12 -10 -14 -8 -14 14 0 28 14 35 23 12z m-43 -42 c0 -8 -5 -12
-10 -9 -6 4 -8 11 -5 16 9 14 15 11 15 -7z m1295 -24 c3 -5 2 -10 -4 -10 -5 0
-13 5 -16 10 -3 6 -2 10 4 10 5 0 13 -4 16 -10z m-1114 -23 c-10 -9 -11 -8 -5
6 3 10 9 15 12 12 3 -3 0 -11 -7 -18z m1439 13 c0 -5 -7 -10 -15 -10 -8 0 -15
5 -15 10 0 6 7 10 15 10 8 0 15 -4 15 -10z m-1279 -15 c-1 -15 -24 -12 -29 3
-3 9 2 13 12 10 10 -1 17 -7 17 -13z m1285 -21 c-3 -8 4 -28 15 -44 12 -15 19
-33 15 -38 -3 -6 -2 -13 4 -17 17 -11 11 -25 -11 -25 -16 0 -19 4 -14 20 4 14
2 20 -8 20 -9 0 -17 14 -21 38 -9 55 -8 62 10 62 10 0 14 -5 10 -16z m-1456
-9 c11 -13 10 -14 -4 -9 -9 3 -16 10 -16 15 0 13 6 11 20 -6z m120 -5 c0 -13
-11 -13 -30 0 -12 8 -11 10 8 10 12 0 22 -4 22 -10z m1040 -11 c0 -4 -7 -6
-15 -3 -8 4 -15 10 -15 15 0 4 7 6 15 3 8 -4 15 -10 15 -15z m-603 -75 c10
-14 26 -34 36 -45 9 -10 17 -23 17 -27 0 -14 62 -126 79 -143 9 -8 25 -21 36
-27 11 -6 14 -12 7 -12 -16 0 -93 48 -109 69 -7 9 -13 30 -13 47 0 17 -7 37
-15 44 -8 7 -15 20 -15 30 0 10 -13 32 -30 50 -32 35 -35 40 -20 40 5 0 17
-12 27 -26z m-387 0 c0 -9 8 -23 18 -31 16 -12 15 -13 -8 -11 -15 2 -24 9 -22
17 1 7 -3 19 -9 27 -9 11 -8 14 5 14 9 0 16 -7 16 -16z m65 -14 c3 -5 1 -10
-4 -10 -6 0 -11 5 -11 10 0 6 2 10 4 10 3 0 8 -4 11 -10z m575 -10 c12 -8 11
-10 -7 -10 -27 0 -30 -15 -7 -28 9 -5 14 -14 10 -21 -9 -13 -36 -15 -36 -2 0
10 -19 9 -38 -2 -9 -7 -9 -12 3 -23 16 -16 21 -49 6 -40 -13 9 -84 117 -79
122 3 2 14 -5 25 -16 12 -10 24 -16 28 -12 4 4 11 7 16 7 5 0 9 5 8 10 0 6 10
13 23 17 32 9 31 9 48 -2z m999 -60 c1 -20 -1 -22 -9 -10 -5 8 -9 29 -9 45 0
26 2 27 9 10 5 -11 9 -31 9 -45z m47 -245 c4 -21 2 -26 -4 -15 -10 16 -43 185
-41 210 1 14 35 -131 45 -195z m-106 -62 c-10 -16 -11 -15 -6 7 3 14 6 34 7
45 1 13 3 11 6 -7 2 -15 -1 -35 -7 -45z m-1305 17 c3 -5 1 -10 -4 -10 -6 0
-11 5 -11 10 0 6 2 10 4 10 3 0 8 -4 11 -10z m1422 -27 c-3 -10 -5 -4 -5 12 0
17 2 24 5 18 2 -7 2 -21 0 -30z m22 -83 c1 -20 -1 -22 -9 -10 -5 8 -9 29 -9
45 0 26 2 27 9 10 5 -11 9 -31 9 -45z m-824 10 c3 -6 -4 -10 -17 -10 -18 0
-20 2 -8 10 19 12 18 12 25 0z m1305 -14 c0 -3 -4 -8 -10 -11 -5 -3 -10 -1
-10 4 0 6 5 11 10 11 6 0 10 -2 10 -4z m-5 -36 c3 -5 1 -10 -4 -10 -6 0 -11 5
-11 10 0 6 2 10 4 10 3 0 8 -4 11 -10z m-563 -52 c-8 -8 -9 -4 -5 13 4 13 8
18 11 10 2 -7 -1 -18 -6 -23z m108 -20 c0 -23 -3 -29 -9 -19 -5 7 -14 10 -20
7 -14 -9 -14 0 1 24 18 29 28 25 28 -12z m-572 -10 c11 -14 10 -16 -7 -11 -12
3 -21 9 -21 12 0 8 12 23 14 19 1 -2 7 -11 14 -20z m-200 -8 c-7 -11 -19 -20
-27 -20 -8 0 -4 8 10 20 30 25 32 25 17 0z m169 -96 c-3 -3 -12 -4 -19 -1 -8
3 -5 6 6 6 11 1 17 -2 13 -5z m-2461 -110 c98 -4 184 -11 190 -15 6 -5 11 -26
11 -47 0 -45 -27 -63 -84 -56 -21 3 -39 0 -43 -7 -6 -8 -13 -8 -30 1 -13 7
-59 13 -104 14 -44 1 -99 7 -121 14 -37 10 -41 16 -51 57 -12 52 -9 58 27 51
14 -3 106 -8 205 -12z m3607 -95 c-9 -9 -8 -15 3 -26 8 -8 14 -28 14 -44 0
-16 0 -32 1 -36 0 -4 -4 -9 -9 -11 -5 -1 -14 23 -21 54 -14 73 -14 74 6 74 13
0 14 -3 6 -11z m-3563 -49 c40 0 51 -2 40 -10 -8 -5 -10 -10 -4 -10 12 0 26
-48 15 -54 -3 -2 -24 0 -46 4 l-40 8 38 1 c26 1 37 5 35 14 -3 7 -28 13 -69
14 -42 2 -68 8 -75 17 -5 8 -28 17 -50 19 -21 2 -7 3 31 0 39 -2 95 -3 125 -3z
m-75 -60 c3 -5 1 -10 -4 -10 -6 0 -11 5 -11 10 0 6 2 10 4 10 3 0 8 -4 11 -10z
m30 0 c3 -5 1 -10 -4 -10 -6 0 -11 5 -11 10 0 6 2 10 4 10 3 0 8 -4 11 -10z
m3638 -47 c6 -32 3 -38 -12 -28 -13 8 -15 55 -2 55 5 0 11 -12 14 -27z m17
-58 c0 -8 -7 -15 -15 -15 -8 0 -15 7 -15 15 0 8 7 15 15 15 8 0 15 -7 15 -15z
m7 -40 c-4 -8 -3 -17 2 -19 4 -3 7 -19 6 -36 -1 -17 2 -33 6 -36 5 -2 6 -11 3
-18 -3 -8 -1 -17 5 -20 6 -4 8 -13 4 -21 -3 -8 0 -15 6 -15 6 0 11 -13 11 -30
0 -20 -5 -30 -15 -30 -8 0 -15 3 -15 8 0 4 -5 36 -11 72 -6 36 -11 73 -12 83
-1 9 -5 17 -9 17 -4 0 -8 14 -8 30 0 21 5 30 16 30 10 0 14 -6 11 -15z m-463
-130 c5 -26 4 -37 -2 -30 -6 6 -13 35 -16 65 -6 58 5 37 18 -35z m50 -275 c9
-47 18 -98 21 -115 6 -39 16 -93 21 -125 3 -14 11 -56 19 -95 12 -62 27 -145
42 -240 4 -30 30 -179 58 -330 8 -44 17 -98 20 -120 32 -213 63 -393 70 -405
3 -6 2 -10 -3 -10 -9 0 -30 99 -52 240 -5 36 -19 117 -31 180 -11 63 -27 153
-34 200 -59 352 -102 593 -112 625 -3 11 -10 47 -14 80 -5 33 -17 107 -28 165
-11 58 -20 119 -20 135 1 29 7 2 43 -185z m462 159 c3 -6 0 -15 -7 -20 -11 -7
-10 -9 3 -9 11 0 15 -5 12 -14 -3 -8 0 -17 6 -21 8 -5 7 -11 -2 -23 -11 -13
-11 -14 1 -7 11 6 13 2 7 -19 -5 -19 -3 -26 4 -21 7 5 11 0 10 -11 -1 -11 -1
-21 0 -24 1 -3 3 -12 5 -20 2 -8 8 -37 14 -63 6 -27 9 -53 6 -58 -4 -5 -2 -9
3 -9 5 0 12 -19 15 -42 3 -24 15 -86 26 -138 28 -134 35 -179 35 -227 1 -24 5
-43 10 -43 4 0 5 -8 2 -17 -4 -9 -3 -19 2 -22 5 -3 12 -18 15 -32 5 -20 2 -29
-9 -33 -13 -5 -15 -2 -11 13 3 11 2 21 -2 23 -13 6 -49 213 -39 219 6 4 5 8
-3 11 -12 4 -18 30 -46 187 -4 27 -3 32 8 27 8 -4 7 -1 -2 6 -16 13 -26 52
-65 253 -25 132 -27 145 -16 145 6 0 14 -5 18 -11z m-813 -26 c-7 -2 -19 -2
-25 0 -7 3 -2 5 12 5 14 0 19 -2 13 -5z m-1078 -133 c-3 -5 -17 -10 -31 -10
-14 0 -22 4 -19 10 3 6 17 10 31 10 14 0 22 -4 19 -10z m625 -130 c0 -5 -2
-10 -4 -10 -3 0 -8 5 -11 10 -3 6 -1 10 4 10 6 0 11 -4 11 -10z m71 -61 c11
-5 17 -14 14 -20 -10 -15 -23 -11 -35 11 -12 23 -7 25 21 9z m-1391 -101 c0
-17 -18 -6 -28 17 -19 41 -14 53 8 20 11 -16 20 -33 20 -37z m1439 -2 c7 -8
14 -43 16 -78 4 -88 6 -96 14 -68 9 34 39 38 46 7 7 -25 -17 -80 -52 -124 -10
-12 -44 -37 -76 -56 -56 -34 -58 -35 -165 -33 -59 1 -123 6 -142 10 -26 6 -31
5 -20 -3 17 -12 10 -14 -14 -5 -9 3 -13 10 -10 15 3 5 -4 9 -16 9 -12 0 -31 5
-42 11 -15 8 -19 8 -13 -1 12 -19 -69 27 -89 51 -15 17 -15 21 -3 16 11 -4 14
-2 10 9 -3 7 -9 14 -14 14 -5 0 -9 5 -9 11 0 8 5 8 15 -1 8 -7 22 -10 30 -6
17 6 95 -38 95 -54 0 -5 12 -16 28 -24 23 -12 30 -12 47 0 10 8 31 14 47 14
30 0 46 22 43 58 -1 13 4 26 12 29 10 4 11 9 3 18 -8 10 -6 15 8 19 31 10 58
39 59 64 2 19 -3 22 -33 22 -19 0 -34 5 -34 11 0 7 11 9 30 5 21 -4 29 -2 24
5 -8 13 13 29 40 29 19 0 19 -1 2 -13 -15 -11 -13 -14 23 -23 33 -9 41 -9 41
2 0 8 7 14 16 14 14 0 14 3 4 15 -10 13 -7 17 21 30 43 18 44 18 58 1z m-199
-15 c0 -5 -8 -11 -17 -14 -10 -2 -27 -8 -38 -12 -11 -4 -7 2 10 14 32 23 45
26 45 12z m573 -108 c7 -36 0 -42 -41 -36 -23 4 -32 10 -28 19 3 8 0 14 -7 15
-10 0 48 26 64 28 4 1 9 -11 12 -26z m35 -206 c3 -27 2 -28 -40 -25 -37 3 -44
7 -46 27 -2 13 0 21 5 18 4 -2 17 -1 28 4 33 13 50 6 53 -24z m-2655 -103 c27
-5 37 -11 37 -25 0 -16 -8 -19 -43 -19 -24 0 -47 4 -52 9 -6 5 -23 11 -39 13
-16 2 -31 9 -34 16 -4 13 64 17 131 6z m3577 -13 c0 -5 -6 -12 -12 -14 -10 -4
-10 -8 1 -15 7 -5 11 -14 7 -20 -3 -6 -2 -13 4 -17 15 -9 12 -25 -4 -25 -7 0
-16 14 -20 31 -10 50 -7 69 9 69 8 0 15 -4 15 -9z m-900 -35 c0 -47 -62 -64
-68 -18 -2 16 3 25 20 31 37 15 48 12 48 -13z m-2743 8 c-3 -3 -12 -4 -19 -1
-8 3 -5 6 6 6 11 1 17 -2 13 -5z m-667 -84 c0 -5 -5 -10 -11 -10 -5 0 -7 5 -4
10 3 6 8 10 11 10 2 0 4 -4 4 -10z m4324 -11 c-8 -14 -24 -10 -24 6 0 9 6 12
15 9 8 -4 12 -10 9 -15z m-4046 4 c-15 -2 -42 -2 -60 0 -18 2 -6 4 27 4 33 0
48 -2 33 -4z m4052 -38 c0 -8 -4 -15 -10 -15 -5 0 -10 7 -10 15 0 8 5 15 10
15 6 0 10 -7 10 -15z m10 -33 c0 -13 -12 -22 -22 -16 -10 6 -1 24 13 24 5 0 9
-4 9 -8z m10 -42 c0 -5 -7 -10 -15 -10 -8 0 -15 5 -15 10 0 6 7 10 15 10 8 0
15 -4 15 -10z m0 -40 c0 -5 -4 -10 -10 -10 -5 0 -10 5 -10 10 0 6 5 10 10 10
6 0 10 -4 10 -10z m10 -40 c0 -5 -4 -10 -10 -10 -5 0 -10 5 -10 10 0 6 5 10
10 10 6 0 10 -4 10 -10z m5 -40 c3 -5 1 -10 -4 -10 -6 0 -11 5 -11 10 0 6 2
10 4 10 3 0 8 -4 11 -10z m15 -40 c0 -5 -7 -10 -15 -10 -8 0 -15 5 -15 10 0 6
7 10 15 10 8 0 15 -4 15 -10z m0 -40 c0 -5 -4 -10 -10 -10 -5 0 -10 5 -10 10
0 6 5 10 10 10 6 0 10 -4 10 -10z m10 -34 c0 -3 -4 -8 -10 -11 -5 -3 -10 -1
-10 4 0 6 5 11 10 11 6 0 10 -2 10 -4z m-3404 -24 c24 -15 45 -74 43 -117 -2
-25 -7 -45 -12 -45 -5 0 -7 -6 -4 -14 3 -8 0 -19 -7 -25 -18 -15 -46 -3 -39
16 3 8 -6 3 -21 -11 -14 -15 -26 -28 -26 -30 0 -13 47 -12 66 1 22 14 24 14
30 -1 3 -9 1 -23 -5 -30 -13 -15 1 -32 18 -22 5 4 7 -3 4 -14 -4 -15 1 -21 23
-26 32 -8 84 -43 84 -57 0 -19 -111 30 -154 67 -16 15 -32 26 -35 27 -3 0 -14
2 -24 4 -11 2 -16 1 -13 -2 3 -4 1 -12 -5 -20 -9 -10 -8 -13 0 -13 7 0 10 -4
6 -9 -3 -5 -1 -12 5 -16 17 -11 11 -22 -13 -22 -16 0 -23 6 -25 21 -1 16 1 17
8 6 5 -8 12 -12 15 -8 3 3 -1 12 -9 21 -14 13 -14 16 2 22 15 6 16 7 1 18 -9
7 -17 17 -19 22 -6 17 -30 38 -30 26 0 -6 -5 -11 -11 -11 -5 0 -8 4 -4 9 3 5
0 13 -6 17 -8 4 -9 3 -5 -4 11 -18 -3 -14 -35 9 -17 12 -29 16 -29 9 0 -7 -6
-10 -12 -8 -14 5 -50 -27 -42 -35 3 -3 1 -8 -4 -11 -13 -8 -9 13 8 44 7 14 12
27 11 30 -8 15 -25 30 -35 30 -6 0 -3 -7 7 -14 16 -12 16 -14 2 -20 -9 -3 -25
-1 -35 4 -13 7 -21 7 -26 -2 -4 -6 -2 -14 4 -16 6 -2 8 -10 5 -18 -4 -12 -8
-12 -20 3 -8 10 -12 13 -9 7 3 -7 0 -14 -8 -17 -11 -4 -13 1 -10 19 2 13 0 24
-6 24 -6 0 -8 -4 -5 -10 3 -5 4 -10 1 -10 -2 0 -12 -3 -21 -7 -15 -5 -16 -3
-6 18 10 20 10 21 -1 8 -16 -18 -61 -20 -54 -2 3 7 0 15 -5 19 -7 4 -10 -3 -9
-17 4 -43 0 -60 -10 -54 -6 4 -8 15 -5 26 4 11 2 19 -5 19 -6 0 -8 -4 -5 -10
3 -5 2 -10 -3 -10 -14 0 -21 35 -11 53 6 10 5 18 -2 23 -7 4 -9 3 -5 -4 3 -6
0 -16 -7 -24 -8 -7 -12 -18 -10 -25 8 -22 -34 -2 -47 23 -14 25 -30 32 -30 13
0 -5 -5 -7 -11 -3 -8 5 -8 9 1 14 24 15 -2 30 -51 30 -56 0 -61 10 -25 55 22
28 26 29 55 18 17 -6 31 -7 31 -2 0 5 8 9 18 9 13 0 14 -2 3 -9 -9 -6 -11 -18
-6 -40 6 -26 9 -30 21 -20 8 6 14 18 14 26 0 8 6 13 13 10 6 -2 19 -1 28 4 14
7 112 35 204 59 39 10 327 12 341 2z m3414 -16 c0 -3 -4 -8 -10 -11 -5 -3 -10
-1 -10 4 0 6 5 11 10 11 6 0 10 -2 10 -4z m10 -80 c0 -3 -4 -8 -10 -11 -5 -3
-10 -1 -10 4 0 6 5 11 10 11 6 0 10 -2 10 -4z m-4040 -76 c0 -5 -5 -10 -11
-10 -5 0 -7 5 -4 10 3 6 8 10 11 10 2 0 4 -4 4 -10z m327 -24 c17 5 17 5 1 -9
-10 -8 -18 -21 -18 -30 0 -9 -5 -19 -12 -23 -7 -4 -8 -3 -4 4 4 7 2 12 -3 12
-6 0 -11 7 -11 15 0 8 5 15 12 15 6 0 3 7 -8 16 -18 15 -18 15 3 5 12 -6 30
-8 40 -5z m-301 -10 c3 -8 13 -12 25 -9 10 3 19 1 19 -5 0 -6 -13 -9 -30 -7
-22 3 -29 1 -23 -8 4 -7 0 -7 -10 2 -11 9 -17 10 -17 2 0 -6 -5 -11 -12 -11
-6 0 -8 3 -5 7 4 3 2 12 -5 20 -9 11 -7 12 16 4 25 -10 39 2 14 12 -8 3 -6 6
5 6 10 1 20 -5 23 -13z m648 6 c3 -5 -1 -9 -9 -9 -8 0 -12 4 -9 9 3 4 7 8 9 8
2 0 6 -4 9 -8z m-489 -23 c17 -12 21 -18 10 -14 -11 4 -29 8 -40 10 -27 3 -27
4 -20 15 9 14 16 13 50 -11z m235 -9 c-13 -9 -13 -10 0 -10 12 0 12 -2 2 -9
-11 -7 -10 -9 3 -14 9 -4 13 -3 10 2 -3 5 -1 12 5 16 5 3 10 -2 10 -12 0 -12
-12 -23 -32 -31 -17 -6 -29 -15 -25 -19 4 -4 13 -1 19 5 7 7 17 12 22 12 6 0
4 -5 -4 -10 -8 -5 -16 -14 -16 -20 -1 -5 -2 -13 -3 -17 0 -4 -7 2 -15 13 -10
12 -11 23 -5 31 7 8 4 15 -8 23 -16 10 -16 11 0 6 12 -4 17 0 17 13 0 20 8 31
24 31 6 0 4 -5 -4 -10z m-219 -28 c-6 -2 -9 -8 -5 -13 3 -5 2 -9 -3 -9 -4 0
-13 11 -19 24 -11 23 -10 24 13 13 14 -6 20 -13 14 -15z m59 8 c6 -11 8 -20 6
-20 -3 0 -10 9 -16 20 -6 11 -8 20 -6 20 3 0 10 -9 16 -20z m245 -18 c-2 -9
-4 -18 -4 -20 -1 -1 -10 2 -22 8 -16 9 -18 14 -9 25 15 18 39 9 35 -13z m-182
-16 c7 -16 -11 -36 -32 -36 -14 0 -14 2 -2 9 12 8 12 12 2 25 -12 14 -11 16 7
16 11 0 22 -6 25 -14z m42 -16 c3 -5 -1 -10 -10 -10 -9 0 -13 5 -10 10 3 6 8
10 10 10 2 0 7 -4 10 -10z m-245 -32 c0 -5 -4 -8 -10 -8 -5 0 -10 5 -10 10 0
6 -7 10 -16 10 -8 0 -12 4 -9 10 6 10 45 -9 45 -22z m380 28 c0 -2 -7 -7 -16
-10 -8 -3 -12 -2 -9 4 6 10 25 14 25 6z m-507 -41 c-3 -8 -10 -15 -15 -15 -7
0 -6 5 1 13 6 8 7 18 3 22 -4 5 -2 5 5 1 7 -4 10 -13 6 -21z m372 15 c3 -6 -1
-7 -9 -4 -18 7 -21 14 -7 14 6 0 13 -4 16 -10z m250 -8 c-3 -3 -11 0 -18 7 -9
10 -8 11 6 5 10 -3 15 -9 12 -12z m-574 -21 c7 11 9 10 9 -5 0 -12 -5 -16 -16
-12 -9 3 -18 6 -20 6 -2 0 -4 8 -4 18 1 15 2 15 11 -2 9 -15 13 -16 20 -5z
m59 5 c0 -2 -7 -7 -16 -10 -8 -3 -12 -2 -9 4 6 10 25 14 25 6z m510 -46 c0 -5
-4 -10 -10 -10 -5 0 -10 5 -10 10 0 6 5 10 10 10 6 0 10 -4 10 -10z m3277 -30
c-2 -24 -17 -15 -17 11 0 11 4 18 9 14 6 -3 9 -14 8 -25z m-3802 -1 c4 -6 13
-8 20 -5 7 2 12 -2 11 -9 -3 -23 -10 -22 -35 2 -13 13 -19 23 -13 23 6 0 14
-5 17 -11z m213 -14 c0 -14 -4 -25 -9 -25 -10 0 -12 34 -2 43 10 10 11 9 11
-18z m32 10 c0 -8 -8 -15 -17 -14 -11 0 -13 3 -5 6 6 2 10 9 6 14 -3 5 0 9 5
9 6 0 11 -7 11 -15z m83 3 c-2 -5 -3 -12 -3 -18 0 -12 -30 -13 -49 -1 -7 5
-11 13 -8 18 7 12 63 12 60 1z m-146 -20 c2 -24 -28 -24 -49 2 -17 19 -16 19
15 18 24 -1 33 -6 34 -20z m180 0 c-3 -8 -6 -5 -6 6 -1 11 2 17 5 13 3 -3 4
-12 1 -19z m63 12 c13 -9 13 -11 0 -19 -10 -7 -17 -6 -22 2 -17 26 -5 35 22
17z m47 -8 c8 -5 9 -13 3 -22 -8 -13 -11 -13 -22 -1 -10 10 -10 12 0 7 6 -4
12 -3 12 3 0 5 -6 12 -12 14 -7 3 -8 6 -3 6 6 0 15 -3 22 -7z m97 -28 c3 -8
-3 -11 -17 -8 -20 4 -20 3 3 -20 22 -20 26 -21 32 -7 6 13 7 12 5 -4 -1 -13
-10 -20 -25 -21 -13 -1 -21 4 -19 10 2 6 -2 17 -10 24 -7 7 -13 19 -13 26 0
15 38 15 44 0z m-1026 -111 c-9 -10 -20 -31 -26 -48 -6 -18 -11 -23 -11 -12
-1 24 27 77 41 77 7 0 5 -7 -4 -17z m1017 -11 c-3 -3 -11 0 -18 7 -9 10 -8 11
6 5 10 -3 15 -9 12 -12z m-430 -31 c-6 -5 -25 10 -25 20 0 5 6 4 14 -3 8 -7
12 -15 11 -17z m55 -20 c0 -6 -8 -3 -18 7 -11 9 -17 20 -15 25 5 9 33 -18 33
-32z m-240 12 c61 -14 114 -69 160 -163 34 -69 63 -99 94 -100 19 0 19 0 0
-22 -19 -21 -19 -21 5 -15 13 3 34 1 48 -4 18 -7 28 -5 39 6 13 12 44 11 44
-2 0 -3 -7 -3 -14 0 -9 4 -17 -1 -20 -11 -6 -19 -46 -25 -47 -7 0 5 -5 -1 -10
-15 -8 -20 -12 -22 -20 -10 -7 12 -11 13 -18 2 -6 -11 -10 -10 -15 3 -5 13 -9
15 -20 6 -10 -9 -15 -8 -20 4 -3 9 -10 14 -15 11 -5 -4 -17 1 -25 10 -12 11
-16 12 -16 2 0 -7 -9 -2 -20 12 -13 17 -20 20 -20 10 -1 -12 -3 -11 -14 3 -8
10 -20 16 -27 15 -8 -2 -15 7 -17 20 -2 15 -9 22 -20 20 -14 -2 -17 4 -15 35
1 20 -2 37 -7 37 -6 0 -10 -8 -10 -17 0 -10 -5 -25 -10 -33 -11 -15 -9 26 6
143 4 29 2 47 -4 47 -6 0 -13 -6 -15 -12 -3 -8 -6 -5 -6 5 -1 24 -25 16 -29
-9 -2 -10 -8 -23 -13 -29 -6 -6 -7 3 -3 23 7 34 2 37 -66 33 -20 -2 -22 0 -10
9 14 10 95 6 150 -7z m320 -11 c3 -4 15 -7 26 -7 12 0 21 -4 20 -10 -2 -17
-67 -5 -89 17 l-22 21 30 -7 c16 -4 32 -11 35 -14z m125 -32 c3 -5 -3 -10 -15
-10 -12 0 -18 5 -15 10 3 6 10 10 15 10 5 0 12 -4 15 -10z m-479 -60 c-13 -41
-14 -42 -15 -15 -1 41 10 78 20 68 5 -5 3 -29 -5 -53z m524 34 c0 -2 -7 -4
-15 -4 -8 0 -15 4 -15 10 0 5 7 7 15 4 8 -4 15 -8 15 -10z m40 12 c0 -3 -4 -8
-10 -11 -5 -3 -10 -1 -10 4 0 6 5 11 10 11 6 0 10 -2 10 -4z m78 -31 c-3 -3
-9 2 -12 12 -6 14 -5 15 5 6 7 -7 10 -15 7 -18z m66 0 c-4 -10 0 -13 17 -10
12 2 29 1 37 -4 9 -5 -3 -8 -34 -6 -80 3 -81 4 -64 14 8 6 17 8 21 5 4 -2 10
0 14 6 9 15 15 12 9 -5z m-154 -15 c-6 -11 -12 -20 -14 -20 -2 0 -2 9 1 20 3
11 9 20 15 20 5 0 4 -9 -2 -20z m-153 -46 c-9 -9 -28 6 -21 18 4 6 10 6 17 -1
6 -6 8 -13 4 -17z m93 -58 c22 -9 27 -15 18 -19 -8 -3 -21 -1 -29 4 -8 5 -24
9 -36 9 -13 0 -23 5 -23 10 0 14 32 12 70 -4z m3 -78 c-21 -18 -43 -40 -50
-48 -6 -8 -14 -12 -18 -9 -6 7 82 89 97 89 5 0 -8 -15 -29 -32z"/>
<path d="M920 980 c-9 -6 -10 -10 -3 -10 6 0 15 5 18 10 8 12 4 12 -15 0z"/>
<path d="M1076 975 c4 -8 11 -15 16 -15 6 0 5 6 -2 15 -7 8 -14 15 -16 15 -2
0 -1 -7 2 -15z"/>
<path d="M949 979 c0 -2 -2 -11 -4 -20 -1 -9 3 -16 10 -16 7 0 12 6 11 13 -2
13 -15 31 -17 23z"/>
<path d="M1020 968 c0 -4 -6 -8 -14 -8 -16 0 -31 -18 -22 -27 3 -3 13 2 22 12
10 10 19 13 23 6 4 -6 12 -7 21 -1 13 9 13 10 0 10 -13 0 -13 1 0 10 12 7 10
9 -8 7 -12 0 -22 -5 -22 -9z"/>
<path d="M1123 893 c-16 -6 -17 -33 -3 -33 11 0 26 28 19 34 -2 2 -10 1 -16
-1z"/>
<path d="M550 433 c0 -10 -3 -29 -5 -43 -5 -22 -3 -21 9 5 18 36 20 55 6 55
-5 0 -10 -8 -10 -17z"/>
<path d="M3807 4510 c3 -11 7 -20 9 -20 2 0 4 9 4 20 0 11 -4 20 -9 20 -5 0
-7 -9 -4 -20z"/>
<path d="M1980 4369 c-9 -17 -9 -20 0 -14 7 4 16 1 21 -6 6 -11 9 -8 9 8 0 31
-17 38 -30 12z"/>
<path d="M2200 4346 c0 -2 7 -9 15 -16 12 -10 15 -10 15 4 0 9 -7 16 -15 16
-8 0 -15 -2 -15 -4z"/>
<path d="M2016 4331 c-4 -5 -2 -12 3 -15 5 -4 12 -2 15 3 4 5 2 12 -3 15 -5 4
-12 2 -15 -3z"/>
<path d="M2001 4278 c-1 -33 4 -35 20 -7 6 13 7 19 1 15 -6 -3 -13 0 -15 6 -3
7 -6 1 -6 -14z"/>
<path d="M2155 4291 c-4 -7 -3 -17 3 -23 6 -6 8 -17 5 -24 -3 -8 1 -14 11 -14
9 0 16 4 16 9 0 5 3 18 7 28 3 10 3 15 -2 11 -4 -4 -13 0 -20 9 -9 12 -14 13
-20 4z"/>
<path d="M2240 4236 c0 -2 7 -6 15 -10 8 -3 15 -1 15 4 0 6 -7 10 -15 10 -8 0
-15 -2 -15 -4z"/>
<path d="M2118 4183 c-28 -7 -21 -23 12 -29 17 -4 30 -10 30 -14 0 -11 59 -34
67 -26 3 3 1 6 -6 6 -6 0 -16 11 -21 25 -5 14 -17 25 -28 25 -10 0 -22 4 -27
8 -6 5 -18 7 -27 5z"/>
<path d="M2051 4154 c0 -11 3 -14 6 -6 3 7 2 16 -1 19 -3 4 -6 -2 -5 -13z"/>
<path d="M2490 4141 c0 -6 5 -13 10 -16 16 -10 12 -28 -5 -21 -8 3 -15 1 -15
-4 0 -13 30 -40 45 -40 8 0 11 -7 8 -19 -3 -10 0 -22 6 -25 7 -5 11 2 11 15 0
36 14 12 17 -28 1 -20 7 -41 14 -47 9 -8 10 -8 6 0 -4 7 6 17 23 24 17 7 30
16 30 20 0 9 -71 65 -82 65 -7 0 -10 8 -7 18 8 27 5 40 -12 44 -10 3 -19 9
-19 14 0 5 -7 9 -15 9 -8 0 -15 -4 -15 -9z"/>
<path d="M2245 4110 c-7 -12 19 -46 47 -61 14 -7 18 -6 18 6 0 8 -8 15 -18 15
-19 0 -42 18 -42 33 0 5 7 3 17 -4 14 -12 16 -12 12 0 -7 19 -25 25 -34 11z"/>
<path d="M2320 4064 c0 -8 5 -12 10 -9 6 4 8 11 5 16 -9 14 -15 11 -15 -7z"/>
<path d="M2675 3973 c-3 -9 0 -20 6 -24 6 -4 9 -11 6 -16 -4 -6 1 -19 9 -29
12 -14 14 -15 11 -3 -3 9 -1 22 4 30 7 11 9 10 9 -4 0 -21 21 -18 28 3 3 7 0
10 -7 6 -7 -5 -13 3 -17 21 -6 32 -38 42 -49 16z"/>
<path d="M2615 3950 c3 -5 11 -10 16 -10 6 0 7 5 4 10 -3 6 -11 10 -16 10 -6
0 -7 -4 -4 -10z"/>
<path d="M2761 3884 l-33 -45 20 -19 c11 -11 23 -28 27 -39 5 -18 8 -18 35 -4
27 13 30 19 28 59 -2 30 -7 44 -17 44 -9 0 -7 6 8 19 18 16 19 20 5 25 -30 12
-41 6 -73 -40z"/>
<path d="M2713 3883 c-15 -5 -18 -33 -4 -33 8 0 25 30 19 35 -2 1 -9 0 -15 -2z"/>
<path d="M2880 3832 c0 -10 -5 -23 -11 -29 -28 -28 -27 -133 1 -133 3 0 7 -17
8 -37 2 -21 7 -40 11 -43 4 -3 11 -12 14 -20 3 -8 6 17 7 55 1 39 2 97 4 130
2 56 -9 95 -26 95 -5 0 -8 -8 -8 -18z"/>
<path d="M2648 3833 c7 -3 16 -2 19 1 4 3 -2 6 -13 5 -11 0 -14 -3 -6 -6z"/>
<path d="M2840 3656 c0 -8 4 -17 9 -20 5 -4 7 3 4 14 -6 23 -13 26 -13 6z"/>
<path d="M2955 3480 c-3 -6 1 -7 9 -4 18 7 21 14 7 14 -6 0 -13 -4 -16 -10z"/>
<path d="M2988 3430 c-7 -24 -3 -38 8 -28 3 4 4 17 2 30 l-3 23 -7 -25z"/>
<path d="M3985 3440 c3 -5 8 -10 11 -10 2 0 4 5 4 10 0 6 -5 10 -11 10 -5 0
-7 -4 -4 -10z"/>
<path d="M3928 3373 c3 -27 9 -49 13 -51 5 -2 9 -22 10 -45 l1 -42 11 40 c7
28 7 40 -2 43 -6 2 -11 21 -11 42 0 20 -6 43 -14 49 -11 10 -13 4 -8 -36z"/>
<path d="M3135 3349 c-12 -19 3 -22 27 -5 l22 16 -21 0 c-12 0 -25 -5 -28 -11z"/>
<path d="M3300 3342 c6 -13 14 -21 18 -18 3 4 -2 14 -12 24 -18 16 -18 16 -6
-6z"/>
<path d="M4041 3214 c0 -11 3 -14 6 -6 3 7 2 16 -1 19 -3 4 -6 -2 -5 -13z"/>
<path d="M4006 3195 c-3 -9 -6 -22 -5 -28 0 -7 5 -1 10 12 5 13 8 26 5 28 -2
2 -6 -3 -10 -12z"/>
<path d="M2933 3164 c21 -22 43 -34 54 -32 15 3 13 7 -12 21 -16 9 -25 16 -20
17 10 0 -42 30 -53 30 -3 0 11 -16 31 -36z"/>
<path d="M3115 3190 c-3 -5 -1 -10 4 -10 6 0 11 5 11 10 0 6 -2 10 -4 10 -3 0
-8 -4 -11 -10z"/>
<path d="M3954 3187 c-6 -17 2 -37 16 -37 5 0 7 10 5 21 -6 29 -13 35 -21 16z"/>
<path d="M3005 3174 c9 -9 18 -14 21 -11 9 9 -6 27 -22 27 -13 0 -13 -2 1 -16z"/>
<path d="M3050 3165 c-14 -16 -3 -20 19 -6 8 5 9 11 3 15 -5 3 -15 -1 -22 -9z"/>
<path d="M4020 3163 c0 -11 -10 -28 -22 -36 l-23 -16 23 6 c13 3 22 1 22 -6 0
-6 5 -11 10 -11 6 0 9 15 7 35 -4 39 -17 60 -17 28z"/>
<path d="M3060 3110 c0 -5 5 -10 10 -10 6 0 10 5 10 10 0 6 -4 10 -10 10 -5 0
-10 -4 -10 -10z"/>
<path d="M2970 3102 c0 -9 43 -52 51 -52 3 0 5 8 5 19 0 10 -5 17 -12 14 -6
-2 -14 3 -17 11 -7 17 -27 22 -27 8z"/>
<path d="M3098 3078 c9 -9 15 -9 24 0 9 9 7 12 -12 12 -19 0 -21 -3 -12 -12z"/>
<path d="M3030 3024 c0 -18 32 -42 37 -27 2 7 11 9 19 6 18 -6 19 11 1 25 -17
14 -57 11 -57 -4z"/>
<path d="M3080 2984 c0 -12 61 -63 83 -70 16 -5 11 4 -21 35 -39 37 -62 50
-62 35z"/>
<path d="M3127 2873 c3 -10 11 -25 17 -33 10 -13 9 -13 -7 -1 -24 19 -33 7
-18 -26 7 -16 15 -39 18 -53 2 -14 16 -53 29 -87 29 -73 30 -121 0 -60 -21 45
-33 42 -17 -3 8 -24 8 -31 -2 -27 -19 6 -37 -49 -37 -112 l0 -57 45 -12 c25
-7 50 -12 55 -12 14 0 13 96 -1 122 -9 17 -9 20 4 15 11 -4 16 8 22 61 15 145
13 180 -12 202 -27 24 -30 42 -5 34 14 -5 14 -4 2 4 -8 6 -17 9 -20 7 -4 -2
-20 9 -35 25 -32 34 -47 39 -38 13z"/>
<path d="M3371 2683 c-1 -12 4 -25 9 -28 12 -7 12 2 0 30 -8 19 -9 19 -9 -2z"/>
<path d="M2564 1628 c3 -13 6 -28 6 -34 0 -6 18 -19 41 -29 38 -18 42 -18 50
-2 6 9 17 17 24 17 8 0 15 4 15 8 0 14 -23 32 -41 32 -9 0 -30 7 -45 15 -42
22 -58 19 -50 -7z"/>
<path d="M2365 1552 c-11 -2 -25 -8 -32 -14 -14 -12 -6 -38 13 -38 7 0 17 -7
22 -16 8 -14 13 -13 45 6 20 12 37 25 37 30 0 20 -50 39 -85 32z"/>
<path d="M2220 1525 c-10 -12 -10 -15 3 -15 19 0 31 16 18 24 -5 3 -14 -1 -21
-9z"/>
<path d="M2680 1205 l-34 -25 41 0 c26 0 43 -5 46 -14 4 -9 14 -12 26 -9 17 4
20 11 15 32 -4 14 -9 29 -11 34 -9 15 -50 6 -83 -18z"/>
<path d="M3366 638 c-18 -16 -18 -18 -2 -18 9 0 15 -4 11 -9 -7 -13 10 -22 28
-15 19 7 17 52 -3 57 -8 2 -24 -5 -34 -15z"/>
<path d="M2799 650 c-7 -50 -6 -68 7 -89 8 -14 34 -75 58 -136 l44 -110 74
-40 c41 -22 89 -50 106 -63 18 -13 32 -21 32 -19 0 5 -55 110 -95 182 -15 28
-51 79 -78 115 -52 66 -146 169 -148 160z"/>
<path d="M2700 611 c0 -6 4 -13 10 -16 6 -3 7 1 4 9 -7 18 -14 21 -14 7z"/>
<path d="M3530 601 c0 -6 4 -13 10 -16 6 -3 7 1 4 9 -7 18 -14 21 -14 7z"/>
<path d="M3273 555 c0 -8 4 -15 9 -15 4 0 8 4 8 9 0 6 -4 12 -8 15 -5 3 -9 -1
-9 -9z"/>
<path d="M3570 560 c0 -5 6 -10 14 -10 8 0 17 -7 20 -16 4 -9 9 -14 13 -10 7
7 -25 46 -39 46 -4 0 -8 -4 -8 -10z"/>
<path d="M3300 536 c0 -10 9 -16 21 -16 24 0 21 23 -4 28 -10 2 -17 -3 -17
-12z"/>
<path d="M2790 519 c0 -11 4 -18 10 -14 5 3 7 12 3 20 -7 21 -13 19 -13 -6z"/>
<path d="M2621 516 c-9 -10 -8 -15 3 -19 16 -7 26 1 26 20 0 17 -14 17 -29 -1z"/>
<path d="M3577 509 c7 -7 15 -10 18 -7 3 3 -2 9 -12 12 -14 6 -15 5 -6 -5z"/>
<path d="M3305 500 c-4 -6 -15 -8 -26 -5 -11 4 -19 2 -19 -5 0 -8 -10 -9 -30
-5 -18 4 -30 3 -30 -3 0 -14 29 -42 43 -42 7 0 6 -4 -3 -10 -20 -13 -33 -13
-25 0 3 6 1 10 -4 10 -12 0 -13 -6 -14 -55 0 -16 -5 -33 -11 -37 -7 -5 -3 -8
8 -8 15 0 16 -3 6 -15 -6 -8 -10 -22 -7 -32 4 -14 5 -13 6 4 1 19 9 24 42 29
27 5 46 15 56 30 8 13 19 21 25 18 5 -3 21 -3 36 1 l27 7 -23 9 c-14 5 -23 16
-21 26 5 52 -2 93 -15 93 -8 0 -18 -5 -21 -10z"/>
<path d="M3646 486 c6 -15 -33 -29 -42 -15 -3 5 -10 9 -17 9 -8 0 -8 -3 0 -11
18 -18 -11 -41 -42 -33 -19 5 -24 11 -20 25 7 23 -13 26 -21 4 -5 -12 -10 -13
-20 -5 -9 8 -18 8 -33 0 -23 -12 -27 -25 -11 -35 18 -11 11 -32 -12 -40 -22
-6 -22 -7 6 -15 16 -5 34 -6 39 -3 6 3 7 1 3 -5 -11 -17 9 -15 24 3 13 16 60
21 60 7 0 -10 -50 -58 -56 -54 -12 7 -16 0 -5 -11 10 -10 15 -9 24 4 10 14 14
14 25 3 7 -8 8 -14 2 -14 -5 0 -10 -7 -10 -15 0 -11 11 -15 38 -15 47 0 64 10
52 30 -14 22 -12 33 5 26 17 -6 19 3 5 38 -7 19 -17 26 -37 27 -16 0 -37 4
-48 8 -17 7 -16 9 10 13 18 4 33 1 37 -5 7 -12 9 -9 12 23 2 30 31 16 34 -17
3 -32 21 -47 23 -20 1 6 3 22 4 34 1 12 -2 20 -6 17 -5 -3 -9 9 -9 25 0 17 -4
31 -10 31 -5 0 -7 -6 -4 -14z"/>
<path d="M2788 484 c-10 -15 -13 -108 -4 -122 9 -15 36 -16 36 -1 0 6 -7 18
-16 27 -11 10 -13 17 -5 20 6 2 11 8 11 13 0 6 -5 7 -12 3 -7 -4 -8 -3 -4 5 4
6 11 9 16 6 9 -6 23 25 15 33 -3 3 -5 0 -5 -6 0 -22 -19 -12 -22 11 -2 12 -6
17 -10 11z"/>
<path d="M2820 420 c0 -5 5 -10 10 -10 6 0 10 5 10 10 0 6 -4 10 -10 10 -5 0
-10 -4 -10 -10z"/>
<path d="M3058 404 c-4 -5 0 -18 8 -29 15 -20 17 -12 5 19 -4 11 -10 15 -13
10z"/>
<path d="M2838 382 c-4 -12 1 -18 13 -19 22 -2 25 10 5 26 -11 9 -15 7 -18 -7z"/>
<path d="M3105 376 c-23 -24 -26 -37 -12 -56 8 -11 17 -17 21 -13 4 4 4 0 1
-9 -4 -9 -2 -19 4 -23 7 -4 11 10 11 42 0 56 -9 77 -25 59z m9 -30 c-6 -15
-24 -23 -24 -11 0 8 24 34 28 30 1 -1 0 -10 -4 -19z"/>
<path d="M2770 213 c0 -135 5 -150 36 -119 36 36 196 45 232 13 14 -13 20 -13
35 -3 16 12 12 18 -40 65 -31 28 -86 66 -121 83 -56 28 -62 33 -42 38 21 5 18
7 -21 20 -24 8 -48 14 -53 12 -5 -2 -13 3 -17 10 -5 7 -9 -46 -9 -119z"/>
<path d="M3295 320 c4 -6 11 -8 16 -5 14 9 11 15 -7 15 -8 0 -12 -5 -9 -10z"/>
<path d="M2905 280 c3 -5 8 -10 11 -10 2 0 4 5 4 10 0 6 -5 10 -11 10 -5 0 -7
-4 -4 -10z"/>
<path d="M3494 275 c3 -8 1 -15 -4 -15 -6 0 -10 -7 -10 -15 0 -9 -10 -16 -22
-16 -19 -1 -17 -3 7 -9 61 -15 65 -13 63 30 -1 32 -5 40 -21 40 -13 0 -17 -5
-13 -15z"/>
<path d="M3017 219 c12 -12 24 -21 27 -18 2 2 -8 13 -22 23 l-27 19 22 -24z"/>
<path d="M3270 230 c0 -5 5 -10 10 -10 6 0 10 5 10 10 0 6 -4 10 -10 10 -5 0
-10 -4 -10 -10z"/>
<path d="M3566 225 c4 -8 7 -15 9 -15 1 0 8 7 15 15 10 13 9 15 -8 15 -15 0
-20 -5 -16 -15z"/>
<path d="M3090 165 c19 -19 36 -35 39 -35 3 0 -10 16 -29 35 -19 19 -36 35
-39 35 -3 0 10 -16 29 -35z"/>
<path d="M3212 108 c3 -7 28 -16 57 -20 63 -7 74 -17 73 -58 l-1 -30 58 0 c52
0 59 2 69 25 7 14 12 35 12 45 0 15 7 20 25 20 25 0 34 14 16 24 -27 17 -76
-45 -65 -81 5 -17 5 -17 -6 1 -7 10 -10 33 -7 52 l6 34 -120 0 c-92 0 -120 -3
-117 -12z"/>
<path d="M3570 110 c-8 -5 -12 -12 -9 -15 4 -3 12 1 19 10 14 17 11 19 -10 5z"/>
<path d="M2863 104 c7 -8 77 -8 84 0 4 3 -15 6 -42 6 -27 0 -46 -3 -42 -6z"/>
<path d="M2835 81 c-40 -8 -58 -21 -80 -53 l-17 -28 78 0 79 0 17 40 c11 28
13 40 5 40 -7 0 -21 2 -32 4 -11 2 -33 1 -50 -3z"/>
<path d="M3250 59 c0 -5 5 -7 10 -4 6 3 10 8 10 11 0 2 -4 4 -10 4 -5 0 -10
-5 -10 -11z"/>
<path d="M3538 29 c5 -32 15 -29 27 9 5 17 2 22 -13 22 -15 0 -18 -6 -14 -31z"/>
</g>
</svg>
